<svg xmlns="http://www.w3.org/2000/svg" width="128" height="128" viewBox="0 0 128 128"><path d="M32,0H8A8.023,8.023,0,0,0,0,8V32a8.023,8.023,0,0,0,8,8H32a8.023,8.023,0,0,0,8-8V8A8.023,8.023,0,0,0,32,0Zm4,32a4,4,0,0,1-4,4H8a4,4,0,0,1-4-4V8A4,4,0,0,1,8,4H32a4,4,0,0,1,4,4Z"/><path d="M17,8H11a3,3,0,0,0-3,3v6a1,1,0,0,0,2,0V11a1,1,0,0,1,1-1h6a1,1,0,0,0,0-2Z"/><path d="M120,0H96a8.023,8.023,0,0,0-8,8V32a8.023,8.023,0,0,0,8,8h24a8.023,8.023,0,0,0,8-8V8A8.023,8.023,0,0,0,120,0Zm4,32a4,4,0,0,1-4,4H96a4,4,0,0,1-4-4V8a4,4,0,0,1,4-4h24a4,4,0,0,1,4,4Z"/><path d="M105,8H99a3,3,0,0,0-3,3v6a1,1,0,0,0,2,0V11a1,1,0,0,1,1-1h6a1,1,0,0,0,0-2Z"/><path d="M76,0H52a8.023,8.023,0,0,0-8,8V32a8.023,8.023,0,0,0,8,8H76a8.023,8.023,0,0,0,8-8V8A8.023,8.023,0,0,0,76,0Zm4,32a4,4,0,0,1-4,4H52a4,4,0,0,1-4-4V8a4,4,0,0,1,4-4H76a4,4,0,0,1,4,4Z"/><path d="M61,8H55a3,3,0,0,0-3,3v6a1,1,0,0,0,2,0V11a1,1,0,0,1,1-1h6a1,1,0,0,0,0-2Z"/><path d="M32,44H8a8.023,8.023,0,0,0-8,8V76a8.023,8.023,0,0,0,8,8H32a8.023,8.023,0,0,0,8-8V52A8.023,8.023,0,0,0,32,44Zm4,32a4,4,0,0,1-4,4H8a4,4,0,0,1-4-4V52a4,4,0,0,1,4-4H32a4,4,0,0,1,4,4Z"/><path d="M17,52H11a3,3,0,0,0-3,3v6a1,1,0,0,0,2,0V55a1,1,0,0,1,1-1h6a1,1,0,0,0,0-2Z"/><path d="M120,44H96a8.023,8.023,0,0,0-8,8V76a8.023,8.023,0,0,0,8,8h24a8.023,8.023,0,0,0,8-8V52A8.023,8.023,0,0,0,120,44Zm4,32a4,4,0,0,1-4,4H96a4,4,0,0,1-4-4V52a4,4,0,0,1,4-4h24a4,4,0,0,1,4,4Z"/><path d="M105,52H99a3,3,0,0,0-3,3v6a1,1,0,0,0,2,0V55a1,1,0,0,1,1-1h6a1,1,0,0,0,0-2Z"/><path d="M76,44H52a8.023,8.023,0,0,0-8,8V76a8.023,8.023,0,0,0,8,8H76a8.023,8.023,0,0,0,8-8V52A8.023,8.023,0,0,0,76,44Zm4,32a4,4,0,0,1-4,4H52a4,4,0,0,1-4-4V52a4,4,0,0,1,4-4H76a4,4,0,0,1,4,4Z"/><path d="M61,52H55a3,3,0,0,0-3,3v6a1,1,0,0,0,2,0V55a1,1,0,0,1,1-1h6a1,1,0,0,0,0-2Z"/><path d="M32,88H8a8.023,8.023,0,0,0-8,8v24a8.023,8.023,0,0,0,8,8H32a8.023,8.023,0,0,0,8-8V96A8.023,8.023,0,0,0,32,88Zm4,32a4,4,0,0,1-4,4H8a4,4,0,0,1-4-4V96a4,4,0,0,1,4-4H32a4,4,0,0,1,4,4Z"/><path d="M17,96H11a3,3,0,0,0-3,3v6a1,1,0,0,0,2,0V99a1,1,0,0,1,1-1h6a1,1,0,0,0,0-2Z"/><path d="M120,88H96a8.023,8.023,0,0,0-8,8v24a8.023,8.023,0,0,0,8,8h24a8.023,8.023,0,0,0,8-8V96A8.023,8.023,0,0,0,120,88Zm4,32a4,4,0,0,1-4,4H96a4,4,0,0,1-4-4V96a4,4,0,0,1,4-4h24a4,4,0,0,1,4,4Z"/><path d="M105,96H99a3,3,0,0,0-3,3v6a1,1,0,0,0,2,0V99a1,1,0,0,1,1-1h6a1,1,0,0,0,0-2Z"/><path d="M76,88H52a8.023,8.023,0,0,0-8,8v24a8.023,8.023,0,0,0,8,8H76a8.023,8.023,0,0,0,8-8V96A8.023,8.023,0,0,0,76,88Zm4,32a4,4,0,0,1-4,4H52a4,4,0,0,1-4-4V96a4,4,0,0,1,4-4H76a4,4,0,0,1,4,4Z"/><path d="M61,96H55a3,3,0,0,0-3,3v6a1,1,0,0,0,2,0V99a1,1,0,0,1,1-1h6a1,1,0,0,0,0-2Z"/></svg>