<svg xmlns="http://www.w3.org/2000/svg" width="21.822" height="24.42" viewBox="0 0 21.822 24.42"><g transform="translate(-435.979 -527)"><rect width="21.803" height="24.42" transform="translate(435.997 527)" fill="#fff"/><g transform="translate(435.979 527)"><g transform="translate(0 0)"><path d="M71.081,36.936c.611.584,1.217,1.168,1.828,1.752.284.273.578.535.857.818a.344.344,0,0,1,.1.289V50.856a9.968,9.968,0,0,1,0,1.211c-.022.18-.164.158-.355.158h-6.87l.546.546V47.222a6.1,6.1,0,0,0-.093-1.479,3.055,3.055,0,0,0-5.522-.922,3.46,3.46,0,0,0-.491,2V52.7l.546-.546H55.344c-.18,0-.36.011-.54,0-.131-.005-.175-.055-.191-.18-.033-.327,0-.671,0-1V39.758a.325.325,0,0,1,.055-.246,1.878,1.878,0,0,1,.147-.147c.333-.327.671-.655,1-.982l3.618-3.536,3.569-3.487c.306-.295.606-.595.911-.889.06-.055.115-.136.2-.136.12-.005.251.175.333.251l3.427,3.279c.1.1.2.191.3.289.507.486,1.282-.284.769-.769-1.048-1-2.084-1.992-3.127-2.99-.453-.431-.96-1.1-1.626-1.14a1.69,1.69,0,0,0-1.3.7c-1.042,1.02-2.084,2.035-3.127,3.056q-1.981,1.94-3.967,3.874l-1.386,1.353a5.943,5.943,0,0,0-.66.677,2.13,2.13,0,0,0-.229,1.326V51.751c0,.076-.005.158,0,.235a1.276,1.276,0,0,0,1.255,1.25c.486.016.977,0,1.468,0h5.386a.554.554,0,0,0,.546-.546V49.558c0-1.048-.033-2.106,0-3.154a1.961,1.961,0,0,1,3.809-.584,3.767,3.767,0,0,1,.115,1.26v5.691a.554.554,0,0,0,.546.546h6.586a4.271,4.271,0,0,0,.7-.022,1.273,1.273,0,0,0,1.031-1.271V40c0-.109.005-.224,0-.333a1.7,1.7,0,0,0-.693-1.2q-1.121-1.072-2.237-2.144c-.06-.055-.115-.109-.175-.164-.518-.486-1.293.284-.78.769Z" transform="translate(-53.523 -29.251)"/></g></g></g></svg>