<svg xmlns="http://www.w3.org/2000/svg" width="54" height="43.655" viewBox="0 0 54 43.655"><g transform="translate(0 0)"><path d="M54.056,11.6H4.944A2.426,2.426,0,0,0,2.5,14.044V52.811a2.426,2.426,0,0,0,2.444,2.444H54.056A2.426,2.426,0,0,0,56.5,52.811V14.044A2.426,2.426,0,0,0,54.056,11.6ZM51.612,50.366H7.388V16.488H51.612Z" transform="translate(-2.5 -11.6)" fill="#282828"/><path d="M22,57.012H52.813a1.013,1.013,0,0,0,.853-1.592L45.992,44.734a.994.994,0,0,0-1.535-.114l-2.728,2.615a1.084,1.084,0,0,1-1.535-.114L33.6,38.2a1.066,1.066,0,0,0-1.705.057L21.1,55.42A1.061,1.061,0,0,0,22,57.012Z" transform="translate(-10.466 -22.907)" fill="#282828"/><path d="M3.752,0A3.752,3.752,0,1,1,0,3.752,3.752,3.752,0,0,1,3.752,0Z" transform="translate(33.309 9.834)" fill="#282828"/></g></svg>